<?xml version="1.0" standalone="no"?>
<!DOCTYPE svg PUBLIC "-//W3C//DTD SVG 20010904//EN"
 "http://www.w3.org/TR/2001/REC-SVG-20010904/DTD/svg10.dtd">
<svg version="1.0" xmlns="http://www.w3.org/2000/svg"
 width="1080.000000pt" height="1080.000000pt" viewBox="0 0 1080.000000 1080.000000"
 preserveAspectRatio="xMidYMid meet">

<g transform="translate(0.000000,1080.000000) scale(0.100000,-0.100000)"
fill="#000000" stroke="none">
<path d="M6452 10661 c-244 -114 -552 -749 -847 -1746 -134 -453 -531 -2056
-824 -3330 l-90 -390 -121 -228 c-137 -260 -210 -390 -318 -562 -257 -413
-527 -698 -710 -751 -75 -22 -114 -12 -174 44 -169 158 -279 601 -328 1322
-14 198 -26 221 -132 246 -46 10 -94 -13 -141 -69 -24 -29 -103 -133 -174
-232 -336 -464 -759 -971 -792 -950 -31 18 3 289 64 509 135 492 382 925 615
1075 174 113 301 93 481 -75 63 -59 99 -85 123 -90 95 -17 187 73 171 169 -13
75 -167 221 -310 293 -179 90 -366 89 -545 -1 -173 -87 -389 -332 -543 -616
-178 -327 -327 -804 -345 -1104 -13 -214 10 -329 81 -403 92 -96 223 -99 359
-9 123 82 499 515 749 861 l64 90 7 -40 c4 -21 18 -122 32 -224 85 -615 258
-970 523 -1070 88 -33 224 -32 321 2 227 81 475 318 752 718 48 69 70 95 66
76 -56 -237 -307 -1447 -436 -2101 -125 -636 -233 -1259 -271 -1565 -17 -134
-17 -326 -1 -372 36 -102 166 -129 252 -52 67 60 170 289 170 377 0 55 -29
101 -79 127 -35 17 -40 24 -36 48 2 15 12 74 21 132 57 370 203 1149 364 1935
164 798 375 1784 385 1794 3 2 5 -203 5 -457 l0 -462 159 0 159 0 5 783 c6
951 12 1015 101 1103 50 50 107 69 184 60 77 -9 117 -29 151 -76 68 -95 81
-276 81 -1197 l0 -673 164 0 165 0 4 818 c4 879 6 912 58 1018 59 123 266 153
360 52 81 -86 89 -188 89 -1135 l0 -753 166 0 165 0 -4 828 c-5 870 -6 894
-52 1077 -60 235 -194 345 -421 345 -180 0 -303 -68 -389 -215 -15 -25 -30
-45 -34 -45 -4 0 -17 21 -29 46 -35 70 -113 147 -185 180 -57 27 -71 29 -182
29 -115 0 -123 -1 -186 -32 -62 -31 -147 -108 -191 -173 -17 -24 -17 -23 -17
67 -1 82 -3 92 -20 95 -17 3 -11 35 85 443 57 242 150 624 205 850 94 379 104
415 142 475 716 1146 1187 2259 1187 2804 0 160 -30 244 -108 297 -48 33 -141
37 -200 10z m3 -448 c-11 -93 -82 -363 -136 -520 -59 -169 -130 -350 -220
-553 -67 -154 -295 -620 -303 -620 -12 0 118 439 208 705 147 436 260 704 404
963 25 45 48 82 50 82 2 0 1 -26 -3 -57z"/>
<path d="M1552 7419 c-207 -103 -232 -392 -47 -539 84 -67 230 -78 332 -26 93
46 163 162 163 268 l0 38 -165 0 -165 0 0 -35 0 -35 125 0 c138 0 137 1 106
-65 -38 -81 -111 -125 -209 -125 -145 0 -243 112 -229 262 10 111 77 186 184
208 93 20 194 -19 236 -90 15 -25 24 -30 58 -30 48 0 49 10 8 70 -60 87 -146
130 -264 130 -60 0 -82 -5 -133 -31z"/>
<path d="M4097 7434 c-69 -21 -148 -101 -177 -179 -18 -48 -21 -75 -18 -135 8
-128 62 -216 166 -267 50 -24 69 -28 147 -28 78 0 97 4 147 28 103 51 159 137
166 259 7 112 -16 177 -87 249 -38 38 -72 61 -105 72 -61 21 -173 21 -239 1z
m225 -81 c47 -19 104 -84 118 -132 31 -111 -7 -231 -90 -286 -42 -28 -52 -30
-135 -30 -83 0 -93 2 -135 30 -29 20 -54 49 -73 85 -26 50 -29 62 -25 133 4
66 9 84 34 119 38 53 71 78 131 94 53 15 117 10 175 -13z"/>
<path d="M2140 7135 l0 -305 40 0 40 0 0 110 0 110 68 0 67 -1 74 -109 75
-110 43 0 c24 0 43 2 43 5 0 3 -34 55 -75 115 l-75 108 33 11 c36 12 76 50 97
90 18 34 16 141 -3 177 -44 84 -97 104 -282 104 l-145 0 0 -305z m317 209 c15
-12 34 -38 42 -59 13 -32 13 -43 0 -78 -23 -66 -53 -81 -174 -85 l-105 -4 0
127 0 127 104 -4 c87 -2 109 -6 133 -24z"/>
<path d="M2730 7247 c0 -217 12 -289 58 -346 45 -55 95 -76 182 -76 95 0 151
28 193 96 37 60 47 132 47 347 l0 172 -39 0 -40 0 -3 -217 c-3 -242 -9 -265
-71 -304 -26 -16 -45 -19 -99 -17 -57 3 -72 8 -96 31 -45 43 -52 84 -52 306
l0 201 -40 0 -40 0 0 -193z"/>
<path d="M3380 7136 l0 -306 35 0 35 0 0 99 0 99 103 4 c173 6 247 62 255 192
4 78 -24 138 -86 181 -43 30 -46 30 -193 33 l-149 4 0 -306z m278 219 c49 -20
72 -59 72 -125 0 -96 -73 -138 -225 -128 l-50 3 -3 133 -3 132 86 0 c53 0 99
-6 123 -15z"/>
<path d="M7935 5811 c-126 -23 -233 -51 -360 -94 l-100 -34 -3 -181 -2 -181
87 44 c121 60 228 98 369 131 99 23 143 27 264 27 171 1 250 -12 346 -59 150
-71 224 -210 224 -419 l0 -73 -347 -5 c-374 -4 -460 -13 -613 -64 -243 -80
-399 -232 -462 -449 -20 -67 -23 -102 -23 -234 0 -134 3 -165 23 -230 100
-323 405 -497 806 -461 141 12 259 47 352 102 75 44 172 135 220 205 l39 56 3
-156 3 -156 184 0 185 0 0 668 c0 709 -8 912 -40 1038 -67 262 -266 441 -580
520 -104 26 -447 29 -575 5z m822 -1268 c-9 -215 -60 -372 -160 -498 -62 -78
-116 -120 -202 -160 -97 -46 -173 -58 -307 -53 -133 6 -201 28 -279 90 -101
79 -146 193 -137 345 11 169 79 274 222 343 124 59 201 69 555 69 l314 1 -6
-137z"/>
</g>
</svg>
