<?xml version="1.0" standalone="no"?>
<!DOCTYPE svg PUBLIC "-//W3C//DTD SVG 20010904//EN"
 "http://www.w3.org/TR/2001/REC-SVG-20010904/DTD/svg10.dtd">
<svg version="1.0" xmlns="http://www.w3.org/2000/svg"
 width="5333.000000pt" height="5333.000000pt" viewBox="0 0 5333.000000 5333.000000"
 preserveAspectRatio="xMidYMid meet">

<g transform="translate(0.000000,5333.000000) scale(0.100000,-0.100000)"
fill="#000000" stroke="none">
<path d="M19032 48500 c-122 -29 -198 -188 -136 -287 26 -41 100 -26 153 31
33 36 54 33 100 -14 45 -46 72 -50 106 -16 57 57 54 153 -8 223 -55 62 -127
84 -215 63z"/>
<path d="M26635 48240 c-112 -7 -127 -11 -150 -46 -45 -69 -21 -164 50 -199
36 -17 71 -20 398 -26 1681 -35 3326 -351 4917 -946 483 -181 896 -362 1410
-619 1225 -613 2310 -1352 3345 -2277 237 -211 878 -853 1086 -1087 735 -825
1337 -1650 1858 -2548 993 -1712 1638 -3621 1885 -5582 47 -369 71 -630 108
-1180 9 -130 13 -1589 17 -5695 5 -4156 9 -5525 18 -5540 41 -71 122 -94 183
-53 19 13 43 39 53 58 16 33 17 304 14 5600 -2 4105 -6 5607 -15 5725 -46 628
-71 891 -122 1265 -256 1872 -854 3671 -1758 5290 -1274 2282 -2979 4099
-5136 5473 -1987 1265 -4094 2020 -6396 2291 -650 77 -1409 118 -1765 96z"/>
<path d="M19243 48093 c-20 -8 -26 -71 -13 -135 17 -79 113 -272 185 -373 87
-120 158 -198 280 -303 328 -282 717 -458 1165 -527 148 -23 484 -31 664 -15
81 6 149 10 152 7 12 -12 -12 -37 -59 -62 -298 -160 -1050 -604 -1333 -786
-236 -152 -329 -208 -424 -253 l-85 -41 -225 -7 c-415 -14 -1618 -114 -2035
-169 -884 -117 -1501 -337 -2010 -719 -425 -318 -642 -589 -1250 -1560 -282
-450 -268 -427 -261 -446 6 -16 9 -14 501 361 326 249 423 318 611 433 175
107 343 197 549 294 517 244 795 348 1955 733 484 160 741 249 1008 349 130
49 162 55 162 31 0 -16 16 -5 -260 -188 -487 -323 -913 -643 -1495 -1123 -229
-189 -331 -248 -855 -499 -279 -133 -477 -223 -975 -440 -822 -359 -1090 -497
-1510 -778 -370 -247 -614 -457 -1040 -893 -425 -437 -614 -604 -865 -770
-289 -191 -568 -309 -915 -388 -150 -34 -254 -70 -241 -83 7 -7 280 -53 546
-92 461 -68 910 -51 1372 50 639 140 1200 430 1773 916 290 245 501 456 1181
1178 649 688 1261 1267 1919 1816 185 155 210 172 227 167 8 -3 -167 -183
-436 -449 -731 -723 -1168 -1193 -1700 -1828 -784 -937 -1497 -1953 -2007
-2860 -73 -131 -129 -195 -284 -328 -228 -197 -430 -309 -715 -399 -297 -94
-382 -128 -394 -159 -20 -54 4 -88 80 -111 147 -44 452 17 720 146 108 52 128
57 139 39 8 -12 -275 -617 -310 -664 -25 -33 -121 -90 -220 -129 -48 -20 -96
-29 -197 -37 -175 -14 -206 -22 -214 -56 -4 -14 -2 -33 3 -42 13 -21 83 -61
108 -61 30 -1 107 -38 100 -49 -10 -17 -186 -135 -320 -216 -168 -102 -371
-204 -566 -288 -239 -102 -328 -157 -432 -266 -248 -260 -166 -704 154 -827
72 -27 86 -47 108 -156 32 -160 83 -237 213 -322 61 -39 65 -45 120 -157 49
-99 67 -125 125 -180 182 -170 398 -183 641 -38 98 59 169 79 272 79 155 0
289 59 411 180 123 121 173 239 172 405 0 136 -20 191 -203 558 -204 406 -245
538 -243 782 0 68 7 158 17 208 27 143 24 141 90 42 100 -151 160 -205 229
-205 77 0 75 39 -9 169 -108 168 -144 270 -144 409 0 109 31 187 211 534 450
868 877 1578 1426 2372 139 201 167 236 185 236 16 0 7 -30 -76 -246 -276
-721 -459 -1485 -431 -1794 8 -90 18 -110 50 -110 48 0 93 106 191 452 237
837 347 1165 539 1613 155 359 509 1083 590 1206 109 164 617 743 1100 1254
437 462 1351 1385 1372 1385 7 0 13 -5 13 -12 0 -6 -42 -79 -94 -162 -183
-294 -307 -517 -491 -886 -356 -710 -598 -1301 -980 -2385 -195 -555 -314
-844 -462 -1125 -226 -428 -450 -740 -770 -1072 -126 -130 -152 -168 -118
-168 20 0 684 323 910 442 865 459 1359 895 1609 1420 187 390 235 753 206
1543 -27 716 33 1206 212 1755 107 329 214 536 401 780 454 591 1026 1117
1756 1612 93 63 148 95 154 89 7 -7 7 -15 0 -23 -6 -7 -48 -60 -95 -118 -496
-614 -842 -1310 -1042 -2097 -274 -1082 -244 -2115 95 -3170 56 -173 64 -190
80 -180 23 14 356 516 459 692 265 454 360 792 347 1240 -8 272 -44 462 -202
1060 -151 571 -177 723 -179 1030 -1 249 8 291 114 500 136 268 338 587 544
860 197 262 493 598 570 649 28 18 168 102 311 185 143 84 277 164 297 177 39
25 78 32 78 14 0 -6 -34 -50 -76 -98 -523 -604 -838 -1309 -905 -2025 -16
-174 -7 -503 19 -672 66 -426 197 -760 401 -1022 82 -105 131 -146 171 -141
39 5 31 42 -55 243 -131 307 -210 571 -257 856 -30 184 -33 670 -5 849 119
753 465 1401 1093 2049 119 123 154 150 154 117 0 -7 -16 -76 -36 -152 -31
-118 -37 -160 -41 -274 -5 -166 8 -230 50 -244 21 -8 31 -6 41 5 8 7 28 90 46
183 50 275 136 503 257 688 66 101 220 254 323 321 47 30 132 78 189 107 175
87 660 359 693 388 14 11 15 19 7 34 -9 16 -18 19 -45 15 -68 -11 -507 -194
-889 -370 l-90 -42 -230 0 c-218 0 -236 2 -340 28 -130 33 -245 81 -375 155
-135 78 -176 95 -199 83 -42 -23 -33 -61 34 -139 81 -94 257 -193 455 -257 63
-20 117 -38 118 -40 23 -22 -335 -104 -663 -152 -154 -22 -594 -25 -730 -4
-252 38 -476 106 -680 206 -310 152 -567 362 -799 655 -96 121 -195 231 -206
229 -3 0 -10 -3 -17 -6z m-1013 -2834 c-30 -11 -151 -46 -267 -79 -249 -70
-412 -134 -472 -186 -2 -2 4 -13 15 -25 18 -20 25 -21 108 -14 49 4 162 22
250 40 89 19 291 61 450 94 159 34 294 61 300 61 6 0 -2 -11 -19 -25 -18 -14
-101 -47 -205 -80 -567 -183 -1728 -565 -1871 -616 -519 -183 -1003 -397
-1379 -608 -193 -108 -205 -97 -77 74 163 216 396 452 587 596 560 420 1206
628 2370 763 260 30 283 31 210 5z m1360 -2054 c1 -240 36 -511 81 -613 17
-40 21 -43 51 -40 57 5 59 22 48 314 -16 434 -13 503 23 464 13 -14 140 -533
187 -765 100 -489 91 -803 -31 -1171 -49 -146 -110 -271 -244 -496 -129 -218
-131 -218 -173 -40 -79 335 -112 563 -132 922 -25 443 29 1012 141 1465 28
112 28 113 39 95 6 -8 10 -69 10 -135z m-3892 -587 c-8 -12 -181 -143 -384
-291 -584 -425 -722 -529 -829 -623 -110 -96 -119 -106 -129 -146 -6 -25 -4
-28 21 -28 80 0 332 158 908 570 143 102 275 196 293 208 27 20 33 21 38 8 7
-19 -714 -784 -1037 -1101 -417 -408 -753 -674 -1113 -880 -419 -239 -860
-382 -1361 -440 -180 -21 -284 -20 -292 2 -4 10 1 22 13 30 10 8 69 48 131 91
212 146 370 288 838 754 491 488 562 553 807 738 412 312 801 531 1578 891
146 67 321 148 390 180 69 32 129 58 134 59 5 0 2 -10 -6 -22z m1831 -526
c-153 -685 -181 -907 -118 -927 11 -4 26 -1 34 5 31 26 82 181 154 468 42 167
81 304 86 305 30 6 30 -1115 1 -1311 -45 -300 -141 -559 -292 -787 -139 -212
-363 -445 -587 -614 -210 -156 -616 -407 -644 -397 -21 8 -16 21 40 119 190
326 355 705 577 1327 273 760 397 1091 542 1440 126 302 183 421 201 414 11
-4 13 -14 6 -42z m-5183 -5874 c-3 -29 -21 -107 -40 -173 -42 -149 -54 -229
-35 -223 8 2 34 31 59 64 25 33 55 74 67 90 28 37 40 23 47 -61 57 -670 45
-968 -47 -1154 -72 -147 -218 -256 -342 -256 -95 1 -183 60 -219 147 -22 52
-20 85 9 162 14 37 25 86 25 110 l0 43 -77 -18 c-146 -35 -212 -19 -253 61
-45 88 -33 199 35 329 41 77 163 245 283 386 85 101 484 543 491 544 2 1 1
-23 -3 -51z m-396 1 c0 -6 -44 -59 -98 -118 -311 -338 -428 -488 -521 -668
-23 -45 -50 -84 -59 -88 -21 -8 -58 21 -104 81 -53 69 -72 130 -66 218 7 106
54 186 155 263 29 22 667 322 686 323 4 0 7 -5 7 -11z m886 -891 c96 -197 118
-267 112 -361 -9 -134 -84 -237 -220 -302 -77 -37 -103 -43 -95 -22 21 56 59
190 74 263 14 71 18 137 18 332 0 226 1 242 18 242 13 0 38 -40 93 -152z"/>
<path d="M26552 46813 c-37 -32 -30 -102 11 -120 14 -7 131 -14 273 -18 637
-16 1105 -53 1669 -131 2558 -355 4975 -1435 6945 -3103 389 -330 993 -913
1311 -1266 698 -774 1226 -1504 1762 -2431 78 -136 153 -256 168 -266 31 -23
69 -12 95 26 21 33 14 55 -73 211 -929 1674 -2197 3128 -3763 4317 -1996 1515
-4413 2465 -6932 2723 -525 53 -857 75 -1158 75 -260 0 -290 -2 -308 -17z"/>
<path d="M26100 45002 c0 -5 9 -17 20 -27 31 -28 79 -108 100 -167 10 -29 80
-294 155 -588 153 -605 184 -712 199 -707 18 5 54 73 337 632 277 546 320 618
405 678 24 17 41 34 37 38 -9 8 -251 39 -306 39 -21 0 -37 -3 -35 -8 2 -4 17
-34 33 -67 26 -51 30 -71 29 -135 0 -50 -8 -97 -22 -140 -38 -111 -344 -719
-365 -726 -10 -3 -20 -4 -21 -2 -12 16 -246 996 -246 1030 0 24 8 60 19 80
l18 37 -36 5 c-20 3 -90 10 -156 16 -66 6 -130 13 -142 16 -13 2 -23 0 -23 -4z"/>
<path d="M28747 44540 c-34 -27 -177 -222 -382 -520 -219 -319 -328 -461 -449
-587 -54 -57 -97 -105 -95 -107 11 -11 289 -79 289 -71 0 1 -9 24 -21 50 -32
72 -24 148 26 254 59 125 51 123 321 51 120 -32 227 -61 236 -65 22 -9 24 -16
43 -148 18 -122 10 -194 -25 -255 -12 -19 -17 -38 -13 -42 10 -9 316 -90 321
-85 2 2 -6 21 -17 43 -52 101 -82 256 -101 517 -6 77 -19 212 -30 300 -11 88
-31 277 -45 419 -14 143 -26 261 -28 263 -2 2 -16 -6 -30 -17z m-117 -293 c0
-12 14 -161 30 -331 17 -170 29 -310 28 -311 -14 -13 -468 101 -468 117 0 5
84 130 186 279 134 194 191 269 205 269 13 0 19 -7 19 -23z"/>
<path d="M30175 44012 c-1 -89 11 -59 -251 -671 -92 -217 -181 -415 -198 -440
-17 -25 -50 -59 -72 -77 l-42 -31 57 -26 c31 -14 68 -28 82 -31 26 -6 26 -5
32 72 7 96 17 124 226 612 152 355 188 426 205 409 3 -3 60 -322 126 -709 66
-387 121 -705 123 -706 18 -18 81 112 267 546 273 636 262 614 332 684 32 32
58 59 56 60 -5 4 -157 66 -160 66 -2 0 -4 -35 -4 -77 -2 -94 -11 -120 -187
-535 -70 -164 -127 -302 -127 -307 0 -9 -31 -31 -44 -31 -11 0 -27 87 -106
565 -97 596 -96 588 -126 624 -23 28 -136 81 -172 81 -15 0 -17 -11 -17 -78z"/>
<path d="M31877 43227 c-3 -34 -14 -83 -25 -107 -26 -61 -463 -839 -515 -918
-28 -42 -61 -76 -99 -102 l-58 -38 78 -45 c42 -25 104 -59 137 -76 l60 -29 7
61 c8 72 27 130 67 201 16 28 122 218 236 421 114 204 226 396 248 427 35 51
104 107 146 120 22 6 -235 148 -268 148 -5 0 -11 -28 -14 -63z"/>
<path d="M32784 42627 c-39 -56 -71 -103 -70 -104 0 -1 39 10 86 24 101 29
173 28 241 -5 61 -29 89 -57 89 -88 0 -18 -98 -164 -312 -462 -416 -584 -398
-562 -489 -591 l-47 -16 141 -101 142 -102 6 67 c3 36 15 86 26 111 11 25 114
178 229 341 115 162 263 373 329 467 77 110 128 174 142 178 30 8 106 -46 155
-111 43 -57 63 -119 63 -197 0 -31 3 -54 7 -52 9 6 118 161 124 179 4 9 -26
34 -88 76 -145 97 -379 262 -539 381 -81 59 -151 108 -155 107 -5 0 -41 -46
-80 -102z"/>
<path d="M21658 42550 c-35 -27 -39 -53 -17 -95 10 -19 19 -44 19 -55 0 -18
-7 -20 -56 -20 -66 0 -90 -11 -98 -45 -24 -96 97 -208 206 -191 125 20 204
118 196 243 -3 51 -9 69 -34 100 -17 21 -46 48 -64 61 -43 29 -117 30 -152 2z"/>
<path d="M34267 41567 c-5 -80 -25 -175 -92 -445 l-85 -343 -132 -146 c-138
-153 -209 -215 -295 -261 -29 -15 -52 -30 -50 -34 3 -10 199 -188 206 -188 3
0 20 31 38 68 45 93 111 177 255 320 l124 122 294 100 c183 61 339 107 410
121 171 32 167 21 51 128 l-101 93 0 -36 c0 -88 -41 -130 -183 -190 -98 -42
-447 -159 -453 -153 -5 5 37 212 67 332 36 142 91 299 112 322 11 13 40 28 65
35 l44 13 -119 110 c-65 61 -125 116 -134 123 -14 11 -17 1 -22 -91z"/>
<path d="M36253 39202 c-96 -34 -163 -103 -204 -211 -31 -81 -36 -225 -14
-417 11 -98 16 -195 13 -269 -4 -106 -7 -119 -39 -182 -27 -54 -44 -73 -83
-98 -165 -102 -409 51 -472 296 -30 117 -18 181 83 427 7 17 -167 -95 -189
-122 -25 -31 -23 -108 8 -212 60 -210 187 -371 358 -455 87 -43 92 -44 185
-44 80 0 104 4 143 23 113 56 180 165 198 322 11 99 9 138 -17 354 -21 178
-15 326 16 386 30 59 48 78 93 101 150 77 364 -73 408 -286 16 -76 7 -157 -29
-279 -16 -53 -27 -96 -24 -96 6 0 121 78 166 112 46 36 47 59 11 160 -58 161
-133 279 -240 377 -125 114 -256 154 -371 113z"/>
<path d="M39159 38646 c-160 -45 -294 -178 -345 -345 -21 -66 -18 -207 6 -282
79 -259 364 -399 627 -308 219 75 361 307 323 529 -32 192 -181 357 -365 405
-70 18 -182 18 -246 1z m231 -158 c51 -15 125 -64 153 -101 59 -78 72 -116 72
-217 0 -89 -2 -99 -34 -158 -62 -114 -156 -174 -281 -180 -140 -7 -257 64
-322 195 -27 56 -32 75 -32 143 0 68 5 87 33 144 75 154 244 225 411 174z"/>
<path d="M25450 38600 c-41 -4 -157 -8 -258 -9 -101 0 -182 -4 -180 -8 45 -88
43 -55 43 -583 0 -494 0 -495 -22 -538 -13 -23 -23 -45 -23 -48 0 -2 198 -3
441 -2 l441 3 18 22 c20 25 44 144 35 173 -5 15 -14 9 -60 -36 -88 -88 -118
-97 -333 -102 -101 -2 -193 -1 -206 2 -12 3 -28 17 -34 31 -15 32 -16 382 -2
419 14 37 73 50 191 42 102 -6 148 -18 190 -47 24 -17 28 -17 33 -3 7 18 8
174 1 174 -2 0 -21 -11 -41 -25 -53 -36 -96 -45 -222 -45 -107 0 -114 1 -138
25 l-25 25 3 216 c3 248 2 244 95 244 66 0 109 -17 162 -65 l41 -37 0 75 c0
82 -13 108 -53 105 -12 -1 -56 -4 -97 -8z"/>
<path d="M26356 38586 c-118 -50 -189 -159 -190 -291 0 -85 24 -145 81 -201
21 -22 120 -95 221 -163 100 -68 201 -142 223 -164 140 -140 109 -350 -64
-428 -45 -21 -68 -24 -162 -24 -100 0 -115 3 -166 28 -119 58 -199 182 -207
319 -3 43 -8 78 -12 78 -5 0 -13 -30 -19 -67 -38 -226 127 -404 404 -438 73
-9 205 18 288 58 273 130 336 434 133 641 -29 30 -140 112 -256 188 -113 75
-220 152 -237 172 -83 93 -33 212 106 253 99 28 200 3 288 -72 22 -19 43 -31
47 -28 3 3 6 35 6 69 0 87 -1 87 -235 91 -184 4 -192 3 -249 -21z"/>
<path d="M28030 38599 c-47 -4 -257 -7 -467 -8 -228 -1 -402 -5 -432 -12 -69
-14 -134 -58 -156 -105 -21 -45 -24 -116 -5 -159 l13 -30 8 46 c10 67 42 133
75 156 49 35 102 43 290 43 157 0 183 -2 195 -17 11 -13 14 -106 14 -507 l0
-491 -26 -53 -26 -52 174 0 c95 0 173 2 173 4 0 2 -11 28 -25 58 l-25 53 0
481 c0 444 1 483 18 503 16 20 26 22 134 22 129 0 186 -16 241 -68 l27 -27 0
71 c0 109 -2 110 -200 92z"/>
<path d="M11721 38020 c-141 -35 -215 -217 -145 -358 64 -129 201 -177 325
-114 122 61 132 168 20 202 -75 24 -93 33 -79 41 7 5 29 9 49 9 82 0 113 70
64 143 -44 63 -149 99 -234 77z"/>
<path d="M14143 37816 c-42 -35 -63 -84 -63 -145 0 -185 237 -290 383 -170 58
48 80 99 75 177 -4 58 -8 68 -36 93 -47 42 -77 38 -125 -16 -22 -25 -48 -45
-57 -45 -9 0 -27 24 -45 63 -28 58 -33 62 -66 65 -27 2 -44 -3 -66 -22z"/>
<path d="M37115 37239 c-720 -81 -733 -82 -818 -70 -41 6 -95 17 -118 25 -24
8 -45 14 -47 12 -5 -5 141 -296 149 -296 3 0 14 18 24 40 28 63 100 124 175
148 102 33 136 37 165 18 35 -23 239 -430 231 -461 -3 -13 -52 -70 -108 -128
-95 -97 -108 -107 -166 -124 l-63 -19 57 -115 c60 -121 90 -169 104 -169 5 0
16 21 24 48 9 26 31 70 50 97 18 28 218 252 445 499 403 439 481 527 481 540
0 14 -180 1 -585 -45z m270 -29 c3 -5 -99 -122 -226 -260 l-233 -249 -30 52
c-62 110 -188 379 -180 386 5 4 115 20 244 35 129 16 260 32 290 36 81 11 128
11 135 0z"/>
<path d="M39845 36695 c-14 -13 -25 -34 -25 -47 0 -13 16 -84 35 -158 280
-1071 417 -2034 455 -3205 6 -184 10 -2316 10 -5528 l0 -5228 25 -24 c13 -14
34 -25 45 -25 11 0 32 11 45 25 l25 24 0 5403 c0 5228 -2 5580 -30 5998 -58
844 -196 1696 -412 2534 -55 212 -76 256 -124 256 -14 0 -36 -11 -49 -25z"/>
<path d="M38234 35885 c-23 -23 -62 -52 -88 -64 -83 -41 -970 -338 -1045 -351
-40 -7 -92 -9 -117 -5 -24 3 -44 4 -44 2 0 -2 50 -151 110 -330 61 -179 110
-335 110 -346 0 -11 7 -39 16 -61 27 -66 72 -79 223 -64 33 4 61 10 61 14 0 4
-30 22 -67 40 -86 42 -166 123 -215 215 -28 54 -118 291 -118 311 0 12 120 55
613 220 579 193 608 201 682 170 19 -8 35 -12 35 -9 0 33 -97 304 -108 301 -4
0 -26 -20 -48 -43z"/>
<path d="M38108 34111 c-159 -35 -299 -94 -399 -167 -120 -88 -209 -226 -231
-358 -41 -247 149 -484 434 -541 234 -46 549 9 743 130 84 52 198 168 237 241
149 276 4 580 -327 684 -102 32 -334 38 -457 11z m566 -106 c65 -24 128 -87
149 -150 10 -27 17 -79 17 -115 0 -57 -5 -78 -35 -136 -67 -133 -216 -269
-386 -351 -180 -88 -388 -140 -519 -130 -94 7 -131 18 -200 59 -109 66 -148
190 -101 330 71 212 375 427 712 503 88 20 296 14 363 -10z"/>
<path d="M19450 34013 c-41 -14 -53 -69 -21 -97 10 -9 70 -30 132 -45 139 -36
215 -64 339 -126 266 -133 502 -344 740 -660 186 -247 311 -458 515 -864 277
-555 457 -984 803 -1911 1412 -3787 1870 -4997 3754 -9905 418 -1089 766
-1990 774 -2002 30 -47 105 -41 135 12 10 17 461 1211 1002 2655 1478 3940
1790 4779 2599 6985 872 2380 981 2672 1128 3030 466 1137 926 1919 1363 2317
282 257 512 386 834 469 96 25 128 37 139 55 20 30 8 73 -23 85 -15 5 -1034 9
-2579 9 l-2555 0 -24 -25 c-31 -30 -34 -86 -6 -114 21 -21 52 -27 196 -36 206
-14 519 -82 697 -150 250 -97 423 -208 604 -389 333 -334 501 -745 553 -1361
14 -155 14 -523 1 -696 -56 -733 -285 -1708 -629 -2681 -191 -539 -2514 -6926
-2531 -6958 -22 -40 -47 -14 -83 85 -14 39 -224 594 -467 1235 -492 1297 -616
1628 -1255 3350 -831 2240 -1036 2784 -1520 4035 -350 904 -527 1388 -684
1867 -284 868 -293 1117 -51 1359 85 85 199 157 343 219 112 47 192 71 362
109 99 23 134 35 147 51 23 29 23 55 -2 80 -20 20 -33 20 -2367 19 -1292 0
-2355 -3 -2363 -6z"/>
<path d="M39085 32270 c-66 -44 -106 -49 -655 -80 -294 -17 -555 -28 -578 -25
-37 5 -72 19 -146 53 -11 6 -1 -157 11 -169 4 -4 36 6 71 22 71 35 59 33 672
69 195 11 367 22 382 25 35 6 66 -21 46 -40 -7 -7 -164 -121 -348 -254 -184
-133 -389 -281 -455 -329 -66 -49 -147 -107 -180 -129 -33 -23 -82 -64 -110
-92 l-49 -51 126 0 c69 0 339 12 600 26 541 29 595 29 662 -9 40 -22 48 -24
53 -11 8 21 -3 134 -14 145 -6 6 -43 1 -94 -11 -189 -44 -665 -87 -835 -74
-46 4 -84 10 -84 14 0 9 500 375 715 525 94 64 181 127 194 139 55 49 83 154
65 245 -8 37 -10 37 -49 11z"/>
<path d="M15571 31119 c-29 -28 -84 -65 -121 -84 -37 -19 -287 -118 -556 -220
-685 -261 -695 -265 -691 -278 6 -22 90 -56 647 -262 574 -213 649 -247 734
-329 l46 -45 0 202 c0 200 0 202 -18 172 -29 -47 -88 -93 -134 -106 -95 -25
-254 11 -584 134 -109 41 -228 84 -264 96 -36 11 -82 31 -103 44 l-38 23 503
187 c520 194 553 203 608 172 14 -8 28 -14 33 -15 9 0 8 319 -1 342 -6 13 -16
7 -61 -33z"/>
<path d="M12744 31109 c-19 -21 -19 -125 -22 -5293 -3 -5340 -2 -5608 33
-6116 59 -843 194 -1690 396 -2478 77 -299 87 -322 141 -322 41 0 68 32 68 80
0 22 -22 127 -50 232 -215 835 -353 1712 -410 2608 -26 414 -29 1020 -29 6012
0 4040 -3 5243 -12 5260 -16 31 -28 38 -65 38 -19 0 -38 -8 -50 -21z"/>
<path d="M11419 30757 c-21 -14 -39 -37 -47 -61 -18 -55 -12 -10626 6 -10906
81 -1249 228 -2151 529 -3230 678 -2438 1897 -4592 3634 -6420 1909 -2009
4227 -3414 6889 -4175 1165 -333 2385 -525 3591 -566 372 -12 598 -8 641 12
36 16 57 49 64 101 6 49 -17 95 -61 124 -28 18 -30 18 -730 44 -869 32 -1761
150 -2664 355 -1973 445 -3713 1235 -5421 2458 -1197 858 -2286 1917 -3177
3087 -965 1269 -1771 2800 -2289 4345 -387 1159 -648 2499 -724 3720 -27 440
-30 1016 -30 5910 0 3424 -3 5102 -10 5127 -6 20 -26 50 -46 67 -44 39 -104
42 -155 8z"/>
<path d="M37930 29399 c-228 -39 -385 -261 -383 -544 0 -87 4 -111 32 -185 17
-47 29 -95 26 -106 -2 -12 -25 -38 -49 -58 -53 -43 -79 -102 -74 -169 l3 -47
70 55 c133 106 170 114 280 64 134 -60 239 -57 384 12 46 21 86 38 88 35 3 -2
8 -30 12 -62 7 -47 14 -63 40 -86 17 -15 36 -28 41 -28 6 0 10 20 10 43 0 32
13 70 50 143 87 175 88 251 4 332 -54 51 -68 53 -48 7 21 -51 17 -85 -17 -154
-80 -160 -255 -251 -429 -222 -39 6 -95 23 -127 36 l-57 26 89 60 c151 101
292 182 494 283 211 105 274 126 377 126 148 -1 227 -81 227 -232 0 -127 -83
-236 -209 -273 -51 -15 -83 -39 -70 -53 8 -7 192 -40 234 -41 20 -1 22 3 22
52 0 33 11 87 31 143 56 161 50 325 -14 421 -69 102 -174 139 -322 111 -104
-19 -123 -13 -160 46 -113 183 -229 257 -421 270 -43 2 -104 0 -134 -5z m259
-150 c94 -21 229 -109 262 -170 17 -32 -4 -52 -123 -111 -62 -31 -223 -123
-358 -203 -135 -81 -259 -149 -276 -152 -37 -6 -53 14 -85 108 -38 115 -13
249 67 354 59 77 187 152 299 175 58 11 163 11 214 -1z"/>
<path d="M14210 29075 l0 -155 45 34 c66 50 134 62 243 42 66 -12 92 -21 111
-41 l26 -26 -3 -246 c-1 -182 -5 -250 -15 -259 -18 -16 -174 -80 -230 -95 -29
-7 -75 -9 -113 -6 l-64 6 0 -168 0 -169 48 44 c26 24 81 61 122 83 65 33 1174
461 1197 461 13 0 68 48 62 54 -6 6 -695 266 -944 356 -88 31 -189 70 -225 85
-75 31 -197 104 -224 134 -11 12 -23 21 -28 21 -4 0 -8 -70 -8 -155z m758
-236 c141 -50 276 -98 300 -106 23 -8 39 -19 36 -24 -14 -23 -253 -129 -456
-203 -67 -24 -131 -48 -140 -51 -17 -7 -18 8 -18 234 0 160 3 241 10 241 6 0
126 -41 268 -91z"/>
<path d="M14206 27268 c-8 -38 -8 -87 0 -125 l6 -29 61 31 61 30 525 0 c459 0
526 -2 529 -15 1 -9 -30 -36 -85 -71 -49 -31 -241 -154 -428 -274 -187 -119
-418 -269 -514 -333 -166 -111 -172 -116 -150 -128 19 -11 142 -13 579 -14
626 -1 718 -6 787 -44 25 -15 49 -24 52 -20 3 3 7 39 10 81 l3 76 -28 -6
c-145 -32 -242 -40 -464 -40 -129 0 -302 3 -384 8 l-148 7 28 28 c16 16 189
131 384 255 195 125 402 257 460 294 138 88 153 110 148 218 -2 45 -6 84 -10
88 -4 4 -26 -2 -50 -14 -78 -37 -135 -41 -664 -41 -541 0 -586 3 -660 46 l-42
23 -6 -31z"/>
<path d="M37534 26610 c-80 -31 -144 -226 -144 -438 0 -186 46 -317 146 -417
78 -79 129 -100 244 -100 80 0 103 4 143 24 109 54 191 156 322 401 124 231
187 311 274 347 157 66 311 -79 311 -292 0 -136 -61 -244 -204 -362 -50 -42
-93 -77 -95 -79 -2 -2 50 -4 117 -4 152 0 162 7 192 125 34 137 44 285 27 395
-22 143 -49 204 -121 276 -72 71 -126 94 -226 94 -57 0 -78 -5 -138 -35 -104
-52 -167 -126 -282 -331 -120 -216 -151 -264 -202 -320 -203 -220 -470 -83
-471 241 0 70 5 103 23 150 43 113 121 199 243 270 37 22 66 44 64 49 -4 12
-194 17 -223 6z"/>
<path d="M14206 25474 c-8 -59 -8 -148 0 -206 l6 -45 59 24 c85 34 207 42 649
42 486 1 563 -7 703 -64 16 -7 17 4 17 144 0 83 -3 151 -7 151 -3 0 -36 -12
-72 -27 l-66 -28 -580 0 -580 0 -59 28 c-32 15 -60 27 -61 27 -1 0 -5 -21 -9
-46z"/>
<path d="M38775 24876 l-60 -31 -555 -3 c-579 -3 -623 -1 -702 39 l-38 19 0
-149 0 -149 73 26 c63 22 93 26 240 30 146 4 170 2 186 -12 15 -14 19 -39 25
-149 12 -222 48 -329 146 -428 93 -94 234 -146 367 -136 171 13 305 125 365
306 20 60 22 92 26 369 2 166 0 301 -5 301 -4 -1 -35 -16 -68 -33z m9 -232
c22 -21 22 -199 0 -275 -53 -183 -228 -283 -454 -257 -134 16 -250 103 -313
236 -30 62 -32 75 -32 173 0 75 4 111 14 122 12 15 52 17 392 17 330 0 380 -2
393 -16z"/>
<path d="M15427 24503 c-15 -14 -5 -29 37 -56 76 -48 126 -145 126 -247 0 -86
5 -85 -267 -88 -131 -2 -407 1 -613 6 -370 8 -376 9 -437 34 l-62 25 -7 -65
c-6 -61 0 -220 10 -229 2 -2 28 8 58 24 l53 28 614 3 c716 3 656 13 649 -103
-8 -116 -53 -195 -146 -255 -39 -26 -41 -28 -20 -34 47 -12 195 -7 207 8 9 10
11 133 9 464 -4 533 7 492 -123 492 -45 0 -85 -3 -88 -7z"/>
<path d="M37420 23065 l0 -155 43 30 c60 43 137 57 235 43 94 -14 126 -27 141
-60 7 -15 11 -106 11 -251 0 -261 1 -259 -84 -296 -136 -60 -248 -83 -318 -63
l-28 7 0 -171 0 -171 49 44 c27 24 76 58 109 76 49 26 1100 432 1182 457 14 4
40 16 58 27 33 20 33 21 15 38 -10 10 -178 78 -373 150 -195 73 -452 168 -570
212 -239 89 -330 132 -407 195 -29 24 -55 43 -58 43 -3 0 -5 -70 -5 -155z
m764 -241 c149 -53 290 -103 314 -111 28 -10 42 -20 40 -30 -2 -10 -100 -51
-268 -114 -146 -54 -289 -108 -317 -119 l-53 -19 0 244 c0 135 3 245 6 245 3
0 128 -43 278 -96z"/>
<path d="M15554 22821 c-89 -69 -213 -144 -450 -271 -115 -62 -215 -117 -222
-123 -9 -7 -100 -11 -260 -11 -205 -1 -257 2 -307 16 -33 10 -70 20 -82 24
l-23 6 0 -145 0 -146 54 25 c42 19 82 27 168 33 170 13 384 7 438 -13 51 -19
391 -203 525 -284 50 -30 117 -75 150 -101 33 -26 66 -50 73 -55 9 -6 12 23
12 129 l0 137 -35 -30 c-65 -57 -106 -54 -270 23 -91 42 -383 200 -398 214
-19 19 504 305 580 317 33 5 51 2 83 -15 l40 -21 0 170 c0 94 -3 170 -7 169
-5 0 -36 -22 -69 -48z"/>
<path d="M15463 20086 c-60 -19 -106 -50 -157 -107 -63 -70 -97 -144 -161
-354 -74 -241 -99 -303 -145 -367 -86 -121 -197 -157 -308 -102 -129 64 -219
261 -193 422 20 123 66 200 185 314 l81 77 -70 -14 c-169 -34 -174 -36 -199
-66 -40 -47 -50 -101 -51 -259 0 -164 10 -210 76 -347 127 -265 381 -348 581
-191 83 65 140 185 219 458 77 265 126 358 212 401 57 29 159 24 211 -11 76
-51 146 -197 146 -303 0 -107 -37 -192 -140 -322 -33 -41 -55 -75 -48 -75 7 0
53 7 103 15 105 17 136 36 148 91 11 56 -8 296 -32 387 -71 272 -257 415 -458
353z"/>
<path d="M40900 19436 c-73 -21 -116 -42 -193 -95 -95 -66 -127 -78 -238 -91
-187 -22 -312 -75 -413 -175 -155 -155 -214 -359 -162 -562 22 -87 98 -240
229 -461 154 -259 205 -370 248 -547 29 -117 35 -305 15 -430 -9 -54 -18 -101
-20 -103 -3 -2 -28 32 -57 75 -63 94 -129 160 -192 193 -44 23 -49 24 -75 10
-49 -28 -42 -64 33 -164 73 -99 126 -202 149 -291 21 -77 20 -216 0 -286 -9
-30 -81 -197 -160 -372 -358 -788 -748 -1534 -1159 -2218 -228 -378 -313 -504
-330 -487 -3 2 17 70 44 149 147 425 285 977 340 1354 31 207 46 485 33 575
-23 155 -87 140 -147 -35 -9 -27 -43 -167 -75 -310 -263 -1169 -350 -1443
-756 -2396 -213 -501 -212 -499 -438 -794 -486 -633 -1064 -1316 -1929 -2278
-200 -222 -229 -234 -132 -54 114 210 360 713 451 922 310 713 478 1189 814
2307 251 832 358 1132 526 1473 154 314 253 463 558 843 181 227 216 276 204
288 -6 5 -464 -245 -743 -406 -697 -403 -1100 -720 -1396 -1100 -258 -331
-389 -650 -440 -1075 -21 -171 -14 -533 16 -875 32 -372 44 -872 26 -1092 -45
-538 -186 -1045 -392 -1412 -224 -396 -765 -1017 -1279 -1466 -186 -162 -600
-490 -619 -490 -31 1 -22 24 46 115 529 708 873 1563 1007 2506 46 317 51 406
51 819 0 434 -10 570 -66 900 -73 427 -211 901 -368 1264 l-22 50 -125 -210
c-343 -570 -478 -861 -548 -1178 -38 -170 -49 -299 -43 -491 10 -313 66 -561
262 -1155 115 -352 153 -481 189 -650 75 -348 75 -593 0 -802 -83 -232 -404
-791 -668 -1161 -217 -306 -406 -506 -595 -627 -56 -36 -174 -113 -264 -172
-137 -91 -207 -126 -207 -103 0 3 44 64 99 137 426 573 659 1127 747 1773 24
178 24 551 0 725 -74 542 -277 1005 -563 1283 -72 70 -132 82 -133 26 0 -9 43
-105 96 -213 144 -299 224 -511 280 -741 103 -430 109 -866 18 -1298 -123
-584 -406 -1133 -860 -1672 -162 -192 -178 -209 -198 -202 -20 8 -21 6 15 162
19 81 23 129 23 250 0 168 -12 226 -49 251 -23 15 -27 15 -49 0 -20 -12 -26
-27 -31 -73 -38 -356 -65 -469 -160 -670 -123 -260 -274 -431 -495 -562 -294
-174 -724 -447 -738 -469 -13 -20 -13 -25 -1 -33 8 -5 22 -9 33 -9 40 0 490
213 790 375 l159 86 116 15 c233 29 458 13 631 -45 49 -17 156 -64 239 -106
154 -76 178 -84 199 -63 52 52 -61 174 -247 268 -81 40 -216 91 -305 115 l-69
19 39 16 c187 79 459 150 729 191 170 26 464 35 620 20 438 -44 846 -207 1180
-471 105 -83 310 -290 408 -413 65 -81 83 -97 106 -97 34 0 61 28 61 63 0 63
-85 240 -180 375 -200 284 -599 561 -998 692 -358 118 -749 148 -1197 91 -82
-11 -152 -17 -154 -15 -13 13 55 63 294 215 468 297 918 602 1259 852 195 144
293 182 506 197 498 37 1675 201 2155 300 224 46 489 115 676 176 815 264
1403 713 1841 1402 153 240 695 1198 725 1280 11 30 11 33 -3 28 -9 -3 -17 -6
-19 -6 -2 0 -142 -118 -312 -261 -500 -424 -651 -541 -927 -715 -507 -318
-991 -541 -2236 -1026 -464 -180 -764 -302 -1029 -417 -156 -68 -209 -79 -159
-34 13 11 93 71 178 133 464 338 939 729 1355 1114 439 407 631 526 1855 1146
662 336 827 423 1035 550 281 172 590 394 815 586 160 136 492 470 640 644
255 299 567 624 746 779 241 209 507 368 779 464 55 20 183 61 285 93 250 78
259 86 118 103 -332 40 -553 55 -823 55 -165 1 -325 -5 -390 -12 -641 -75
-1213 -285 -1735 -640 -238 -161 -420 -314 -684 -572 -271 -266 -466 -482
-906 -1005 -420 -499 -631 -739 -981 -1110 -320 -341 -888 -897 -1127 -1103
-53 -46 -62 -51 -62 -33 0 14 67 94 193 229 361 388 591 645 863 962 1147
1339 2084 2721 2773 4087 107 212 145 266 280 396 247 237 502 392 822 502
247 85 308 127 278 191 -19 40 -64 53 -186 53 -173 1 -405 -71 -624 -195 -98
-56 -129 -65 -129 -39 0 17 255 638 278 678 20 34 151 121 229 152 38 16 112
31 212 43 167 21 181 28 181 84 0 36 -25 52 -130 79 -47 13 -87 24 -89 26 -15
11 148 139 344 270 149 100 322 200 530 305 195 99 283 157 370 244 113 115
164 254 152 418 -15 209 -134 372 -316 431 -76 25 -95 47 -115 138 -35 156
-112 261 -243 330 -59 31 -72 43 -88 79 -46 109 -74 156 -125 208 -65 66 -144
113 -225 135 -70 18 -192 18 -255 1z m226 -274 c71 -37 124 -113 124 -179 0
-16 -11 -78 -25 -138 -13 -60 -23 -110 -22 -111 1 -2 46 9 99 23 113 30 170
27 218 -14 61 -51 79 -122 56 -230 -24 -118 -116 -278 -297 -520 -133 -176
-434 -539 -454 -547 -24 -9 -19 53 15 194 29 124 39 220 21 220 -15 0 -58 -56
-92 -121 -18 -33 -37 -58 -43 -56 -17 6 -36 49 -36 85 0 17 -14 143 -32 280
-27 211 -32 279 -32 472 -1 181 3 238 17 293 43 170 149 303 285 358 58 24
141 20 198 -9z m-691 -152 c-43 -122 -59 -242 -60 -440 0 -107 3 -242 8 -300
l7 -105 -31 35 c-107 119 -229 368 -229 466 0 99 65 227 147 290 38 29 152 93
165 94 4 0 1 -18 -7 -40z m1463 -650 c77 -56 122 -150 122 -256 0 -125 -66
-232 -193 -312 -85 -54 -564 -302 -582 -302 -31 0 -13 41 48 112 211 242 377
476 463 652 77 156 75 154 142 106z m-4823 -3884 c-176 -371 -299 -713 -515
-1436 -276 -923 -542 -1711 -603 -1784 -20 -24 -25 -27 -22 -11 42 209 115
753 117 865 1 107 -20 167 -52 150 -47 -25 -92 -181 -160 -557 -41 -225 -53
-273 -68 -273 -5 0 -14 109 -20 243 -7 133 -21 366 -33 517 -32 415 -19 645
52 909 117 438 379 820 789 1150 120 96 335 250 473 338 86 54 102 61 105 46
1 -10 -27 -81 -63 -157z m4454 -660 c9 -11 -2 -24 -56 -67 -253 -199 -511
-453 -868 -854 -338 -380 -480 -530 -630 -668 -384 -353 -818 -641 -1565
-1039 -535 -285 -570 -302 -584 -280 -3 5 172 151 388 325 736 593 924 769
864 809 -49 32 -255 -108 -800 -543 -417 -334 -408 -327 -408 -295 0 14 557
678 811 966 580 660 1008 1023 1512 1285 337 175 666 282 1082 350 166 28 238
31 254 11z m-7640 -1395 c224 -788 257 -1534 105 -2344 -15 -76 -28 -137 -29
-135 -2 2 -11 82 -20 178 -29 319 -52 448 -100 557 -28 62 -52 79 -83 57 -20
-14 -22 -24 -22 -117 0 -56 7 -165 15 -242 22 -207 31 -445 17 -445 -18 0 -25
19 -115 320 -140 468 -191 677 -222 917 -53 403 39 798 295 1266 60 109 81
137 105 137 7 0 31 -67 54 -149z m4640 -2737 c-291 -437 -599 -730 -1024 -974
-417 -241 -888 -388 -1783 -559 -243 -47 -292 -52 -292 -31 0 4 102 42 228 84
234 79 371 139 456 199 48 35 48 35 25 48 -56 30 -183 5 -749 -150 -162 -45
-303 -81 -312 -81 -25 0 -22 17 5 34 12 8 297 120 632 249 1054 405 1290 499
1639 654 348 153 748 361 1006 521 58 36 130 81 160 99 l55 34 3 -25 c2 -16
-14 -50 -49 -102z"/>
<path d="M14826 18151 c13 -43 36 -105 50 -137 14 -33 31 -70 36 -84 10 -25
10 -25 30 15 42 83 89 114 211 139 103 22 130 20 154 -6 22 -25 173 -430 173
-464 0 -29 -156 -177 -221 -210 -27 -13 -69 -27 -94 -31 -25 -3 -45 -8 -45
-12 0 -3 25 -77 57 -163 l57 -157 29 53 c50 93 123 168 422 427 574 499 656
572 665 590 9 16 5 19 -27 27 -21 5 -310 10 -643 11 -333 1 -633 7 -668 12
-71 11 -146 34 -179 55 -12 8 -24 14 -27 14 -2 0 6 -35 20 -79z m1194 -69 c0
-13 -204 -209 -290 -278 -84 -68 -189 -144 -201 -144 -12 0 -159 388 -159 422
0 4 146 8 325 8 179 0 325 -4 325 -8z"/>
<path d="M16787 17010 c-38 -64 -125 -124 -383 -262 -620 -333 -695 -368 -820
-380 l-32 -3 105 -195 c58 -107 141 -268 184 -357 44 -90 89 -169 101 -177 12
-9 43 -16 68 -16 45 0 210 39 210 51 0 3 -24 11 -53 18 -178 40 -299 158 -423
414 -22 45 -26 62 -18 75 14 21 998 544 1067 566 27 9 76 16 109 16 l59 0 -72
140 c-39 77 -74 140 -78 140 -4 0 -15 -13 -24 -30z"/>
<path d="M41350 16174 c-65 -28 -120 -96 -120 -147 0 -34 31 -57 102 -77 35
-9 62 -21 61 -26 -1 -5 -26 -11 -54 -14 -59 -7 -79 -26 -79 -78 0 -28 9 -44
48 -82 94 -95 209 -93 307 5 74 73 94 165 60 266 -45 131 -203 206 -325 153z"/>
<path d="M38860 16121 c-74 -23 -117 -61 -149 -131 -49 -108 -1 -220 94 -220
19 0 34 12 61 50 20 28 40 50 45 50 4 0 27 -25 49 -56 23 -30 52 -60 65 -66
51 -23 120 51 132 142 8 59 -19 121 -77 173 -66 60 -145 80 -220 58z"/>
<path d="M25210 15979 c-81 -14 -214 -56 -240 -77 -13 -11 -22 -29 -22 -46 0
-29 50 -156 61 -156 4 0 15 22 25 50 42 117 125 180 239 180 170 0 262 -135
211 -311 -36 -123 -130 -251 -357 -485 -85 -88 -159 -169 -166 -181 l-12 -23
389 0 c300 0 392 3 400 13 11 13 56 170 67 231 6 35 5 38 -12 31 -131 -55
-156 -60 -298 -60 -91 0 -150 5 -169 13 l-29 13 119 81 c145 99 267 219 309
303 25 50 30 72 30 135 0 52 -6 85 -18 107 -75 139 -305 218 -527 182z"/>
<path d="M26331 15944 c-164 -44 -288 -180 -331 -364 -17 -68 -17 -228 -1
-295 33 -136 131 -267 243 -324 82 -41 208 -65 303 -56 225 21 383 153 436
365 19 75 17 259 -4 337 -47 177 -161 293 -332 338 -74 19 -241 19 -314 -1z
m242 -58 c42 -17 94 -77 122 -140 41 -94 50 -152 49 -321 -1 -145 -3 -168 -28
-242 -46 -140 -120 -213 -220 -213 -71 0 -131 32 -167 89 -40 63 -75 179 -87
287 -25 221 50 477 155 533 45 24 129 27 176 7z"/>
<path d="M13830 15929 c-195 -28 -338 -157 -395 -354 -24 -80 -16 -227 15
-308 125 -327 562 -414 806 -160 322 337 36 890 -426 822z m155 -154 c69 -18
140 -64 184 -118 105 -132 90 -343 -31 -452 -68 -62 -140 -89 -233 -89 -91 0
-162 26 -229 85 -201 176 -119 502 144 573 71 19 93 19 165 1z"/>
<path d="M27862 15930 c-19 -4 -38 -12 -43 -17 -19 -19 -39 -190 -24 -205 3
-3 33 3 66 13 52 16 93 19 282 19 235 0 262 -3 271 -27 12 -30 -144 -383 -347
-788 -86 -171 -87 -162 29 -164 51 -1 64 3 81 22 11 12 56 132 100 267 45 135
133 375 197 535 66 164 116 304 116 322 l0 33 -347 -1 c-192 -1 -363 -5 -381
-9z"/>
<path d="M27276 15863 c9 -48 13 -177 13 -431 0 -354 -4 -407 -34 -484 -7 -17
5 -18 155 -18 l162 0 -6 24 c-22 90 -30 213 -30 511 -1 182 3 360 7 398 l8 67
-144 0 -144 0 13 -67z"/>
<path d="M17378 15530 c-225 -35 -485 -193 -640 -389 -163 -204 -201 -418
-111 -610 32 -68 121 -160 189 -194 95 -48 156 -60 283 -54 133 6 198 24 336
92 217 108 419 319 486 510 95 270 -32 546 -287 625 -76 23 -181 31 -256 20z
m267 -74 c57 -26 99 -70 129 -136 30 -65 29 -199 -3 -300 -62 -204 -248 -440
-453 -577 -131 -87 -215 -116 -323 -111 -69 2 -88 7 -123 31 -123 81 -167 260
-106 429 97 268 269 475 507 608 145 81 276 101 372 56z"/>
<path d="M18525 14387 c-14 -63 -49 -113 -139 -201 -361 -351 -713 -679 -749
-698 -23 -11 -62 -26 -86 -32 l-44 -12 55 -59 54 -58 64 84 c112 148 763 780
782 761 9 -9 -31 -190 -151 -689 -89 -373 -164 -686 -167 -695 -4 -14 1 -18
21 -18 29 0 22 -7 538 484 345 328 431 398 504 412 18 3 35 9 38 13 2 4 -21
34 -51 66 l-54 59 -36 -54 c-85 -129 -179 -228 -537 -563 -146 -137 -153 -142
-147 -82 1 11 60 259 131 550 71 292 130 548 131 571 0 22 -5 52 -12 65 -15
28 -91 104 -119 119 -17 9 -20 6 -26 -23z"/>
<path d="M14415 14125 c-14 -13 -25 -32 -25 -41 0 -24 98 -206 237 -442 487
-826 998 -1525 1652 -2262 183 -206 774 -800 981 -986 1198 -1077 2485 -1902
3910 -2506 1435 -608 2859 -945 4585 -1085 265 -21 838 -25 872 -5 26 15 38
51 29 88 -12 46 -44 51 -391 57 -1006 19 -2068 165 -3080 422 -1223 311 -2523
853 -3625 1510 -1773 1058 -3305 2525 -4432 4245 -171 261 -290 455 -459 749
-74 128 -144 244 -156 257 -28 31 -67 31 -98 -1z"/>
<path d="M20590 12471 c-104 -34 -172 -119 -201 -250 -22 -104 -30 -111 -158
-130 -184 -28 -334 -158 -399 -345 -21 -60 -24 -84 -20 -166 3 -77 9 -106 31
-155 93 -200 316 -344 535 -345 65 0 90 -22 115 -104 11 -32 28 -63 43 -75 27
-21 89 -45 103 -39 4 2 -3 49 -16 106 -31 138 -26 160 68 249 47 46 80 88 101
131 29 58 32 75 36 181 2 64 8 120 12 124 4 5 31 1 60 -9 48 -16 54 -16 85 -1
19 9 38 25 44 35 9 17 6 20 -17 25 -39 8 -74 38 -138 119 -100 124 -184 163
-294 134 -41 -11 -57 -11 -63 -3 -4 7 -6 64 -4 127 5 135 27 205 82 262 47 48
92 68 157 68 64 0 121 -25 178 -76 65 -59 83 -103 88 -216 3 -60 9 -101 17
-108 9 -7 29 16 79 91 37 56 66 102 64 104 -2 1 -21 12 -43 23 -22 11 -76 52
-120 92 -111 100 -221 152 -324 156 -42 2 -87 0 -101 -5z m-236 -437 c11 -11
16 -35 16 -77 1 -91 15 -241 51 -524 30 -241 31 -254 14 -279 -16 -25 -20 -26
-98 -22 -307 14 -471 355 -321 666 50 103 165 206 267 237 55 18 53 18 71 -1z
m287 -159 c42 -27 90 -96 121 -174 17 -44 22 -77 22 -156 1 -108 -15 -160 -70
-232 -26 -34 -112 -98 -120 -90 -23 23 -73 395 -75 556 -1 89 2 107 17 118 21
16 58 8 105 -22z"/>
<path d="M22961 11220 c-95 -20 -174 -79 -219 -165 -24 -45 -27 -61 -27 -150
0 -92 3 -105 32 -169 34 -71 57 -102 239 -322 130 -158 168 -218 191 -305 15
-57 15 -73 4 -124 -24 -106 -131 -185 -251 -185 -124 0 -259 59 -343 150 -72
78 -106 151 -126 275 l-17 100 -18 -27 c-28 -42 -76 -167 -76 -197 0 -37 30
-77 102 -139 129 -109 261 -172 408 -192 94 -13 166 -7 264 21 60 18 78 29
131 82 75 75 100 136 99 242 -1 138 -49 224 -273 485 -173 201 -206 260 -206
366 0 64 3 77 30 115 48 67 91 84 215 84 95 0 111 -3 163 -29 114 -55 193
-163 240 -325 l24 -83 21 29 c28 39 72 158 72 194 0 23 -13 37 -77 84 -92 67
-255 149 -338 170 -77 19 -207 27 -264 15z"/>
<path d="M31725 11026 c-85 -37 -135 -113 -135 -206 0 -93 44 -162 122 -195
50 -20 86 -19 125 5 43 26 51 60 24 105 -12 20 -21 45 -21 56 0 17 7 19 59 19
70 0 91 19 91 81 0 105 -154 184 -265 135z"/>
<path d="M24291 10770 c34 -69 26 -122 -91 -629 -132 -570 -138 -591 -190
-659 l-40 -53 32 -13 c39 -16 260 -67 266 -61 2 2 -2 21 -9 42 -20 59 -14 167
15 293 33 137 43 167 62 174 9 3 56 -4 107 -16 125 -29 308 -31 387 -4 158 54
268 177 301 336 19 90 8 217 -25 283 -78 161 -217 226 -690 323 -154 31 -148
32 -125 -16z m374 -87 c129 -34 223 -102 273 -198 21 -40 27 -68 30 -141 2
-50 -1 -115 -7 -143 -27 -128 -111 -239 -219 -289 -76 -35 -214 -43 -307 -17
-112 30 -111 2 -16 413 45 196 89 367 97 380 17 25 34 25 149 -5z"/>
<path d="M26368 10418 c-8 -13 -129 -261 -268 -553 -139 -291 -272 -561 -294
-598 -22 -37 -69 -97 -105 -132 -47 -48 -59 -65 -45 -65 10 0 82 -7 159 -15
77 -8 145 -15 152 -15 6 0 -4 23 -22 50 -40 60 -50 101 -42 180 9 78 53 189
81 199 20 8 452 -30 493 -43 24 -8 32 -25 68 -146 31 -106 37 -197 16 -248 -7
-18 -11 -35 -8 -39 7 -6 316 -35 330 -30 4 1 -10 26 -32 56 -22 29 -53 86 -70
125 -16 39 -102 332 -190 651 -89 319 -168 595 -176 613 -17 38 -28 40 -47 10z
m-30 -403 c18 -61 56 -195 83 -300 28 -104 52 -198 55 -207 5 -16 -4 -18 -83
-18 -112 -1 -393 31 -393 43 0 6 48 114 107 241 58 127 119 259 135 294 41 91
55 83 96 -53z"/>
<path d="M34797 5125 c-20 -14 -37 -30 -37 -36 0 -5 -11 -14 -25 -21 -22 -10
-29 -7 -64 25 -50 45 -75 53 -106 33 -52 -34 -58 -145 -12 -215 37 -55 121
-96 182 -88 59 9 115 38 153 81 52 60 67 189 26 231 -23 23 -75 18 -117 -10z"/>
</g>
</svg>
